<?xml version="1.0" standalone="no"?>
<!DOCTYPE svg PUBLIC "-//W3C//DTD SVG 20010904//EN"
 "http://www.w3.org/TR/2001/REC-SVG-20010904/DTD/svg10.dtd">
<svg version="1.0" xmlns="http://www.w3.org/2000/svg"
 width="1024.000000pt" height="1024.000000pt" viewBox="150 150 724.000000 724.000000"
 preserveAspectRatio="xMidYMid meet">
<metadata>
Created by potrace 1.16, written by Peter Selinger 2001-2019
</metadata>
<g transform="translate(0.000000,1024.000000) scale(0.100000,-0.100000)"
fill="#FFFFFF" stroke="none">
<path d="M4535 8663 c-123 -65 -251 -321 -304 -614 -58 -312 -30 -563 91 -805
l50 -101 -42 -69 c-93 -154 -170 -231 -303 -301 -75 -40 -88 -63 -64 -109 38
-73 180 -166 285 -189 18 -4 30 -11 27 -16 -5 -8 -26 -14 -156 -49 -70 -19
-57 -64 43 -155 131 -118 349 -234 663 -350 167 -62 245 -96 239 -106 -3 -5
-50 -9 -105 -9 l-99 0 0 -66 c0 -62 3 -70 37 -113 49 -60 284 -301 294 -301 5
0 25 11 45 25 58 40 129 30 178 -24 11 -12 25 -21 33 -21 14 0 268 162 398
254 39 27 71 50 71 50 1 1 5 20 9 43 l7 42 -44 5 c-196 24 -309 49 -292 66 5
4 77 13 159 19 306 23 459 51 611 111 122 49 283 164 246 177 -6 3 -31 15 -55
27 l-42 23 -50 -28 c-72 -40 -155 -59 -261 -59 -184 0 -334 54 -448 161 -59
54 -68 60 -103 57 -33 -3 -38 0 -41 20 -5 32 57 92 95 92 33 0 53 -16 53 -41
0 -48 182 -160 310 -190 127 -29 278 -10 366 47 39 25 74 69 74 92 0 6 -24 24
-53 40 -102 58 -142 132 -102 189 23 32 104 53 207 53 51 0 87 4 84 9 -3 5
-43 31 -89 57 -45 27 -109 75 -143 109 -71 70 -89 118 -88 235 1 186 94 304
199 254 103 -49 149 -297 81 -433 -14 -27 -34 -54 -43 -60 -23 -13 -16 -19 82
-71 174 -92 231 -202 202 -382 -6 -32 -5 -48 2 -48 6 0 58 46 115 103 139 136
148 171 55 202 -43 15 -50 20 -37 29 9 6 36 25 61 43 57 40 107 107 107 144 0
30 -25 53 -115 104 -27 16 -80 60 -118 98 -58 59 -77 88 -128 195 -115 243
-154 314 -216 396 -163 218 -374 351 -677 427 -103 26 -387 37 -493 19 l-71
-11 -7 -45 c-3 -24 -9 -44 -13 -44 -4 0 -26 43 -49 95 -135 308 -405 622 -598
694 -66 25 -90 26 -130 4z m224 -340 c87 -64 185 -211 236 -353 30 -84 43
-201 26 -242 -13 -34 -36 -36 -109 -8 -60 23 -134 26 -151 7 -8 -10 -5 -29 12
-75 26 -74 22 -85 -47 -123 -27 -15 -75 -50 -109 -80 l-60 -53 -28 33 c-15 18
-38 67 -52 109 -90 270 -39 670 99 791 34 30 42 33 89 29 38 -3 64 -13 94 -35z
m809 -1147 c41 -21 78 -65 104 -121 19 -42 23 -67 23 -160 0 -101 -2 -115 -28
-167 -31 -63 -61 -89 -122 -108 -93 -28 -198 43 -231 156 -18 64 -21 182 -5
242 16 58 71 134 111 154 42 22 111 23 148 4z"/>
<path d="M4616 8215 c-29 -32 -62 -135 -76 -238 -20 -155 -7 -433 22 -462 2
-3 30 20 62 51 55 53 57 57 47 86 -46 132 68 225 214 173 21 -8 41 -13 42 -11
6 5 -58 178 -84 231 -52 104 -139 195 -187 195 -9 0 -27 -11 -40 -25z"/>
<path d="M5392 7077 c-26 -27 -29 -82 -7 -114 33 -47 104 -33 126 25 30 79
-63 149 -119 89z"/>
<path d="M6577 8625 c-87 -31 -231 -145 -341 -271 -76 -86 -216 -287 -216
-308 0 -7 24 -20 53 -30 28 -11 87 -35 130 -54 45 -20 81 -31 86 -26 4 5 23
47 41 94 74 186 197 320 295 320 62 0 111 -96 120 -235 l5 -70 -14 50 c-43
160 -95 193 -180 115 -50 -47 -93 -122 -141 -252 l-35 -93 27 -20 c125 -91
231 -208 318 -351 26 -44 55 -90 63 -103 l15 -24 18 24 c26 33 76 165 96 252
12 52 16 121 17 252 0 196 -14 302 -61 448 -80 255 -160 331 -296 282z"/>
<path d="M1844 8279 c-13 -4 -28 -25 -38 -51 -65 -177 -156 -528 -156 -602 0
-75 14 -112 270 -716 59 -140 170 -401 245 -580 191 -453 343 -807 371 -862
26 -52 14 -50 147 -16 42 11 79 23 81 27 3 4 -18 70 -45 147 -196 544 -584
1732 -608 1861 -32 167 119 -210 506 -1262 46 -126 118 -324 160 -440 41 -115
81 -222 89 -237 17 -32 23 -30 136 29 50 26 67 40 64 52 -3 9 -37 135 -76 281
-71 263 -311 1143 -416 1525 -108 390 -124 433 -191 496 -86 82 -432 326 -490
346 -15 6 -38 7 -49 2z"/>
<path d="M6390 7100 c-43 -43 -13 -130 44 -130 29 0 66 42 66 75 0 33 -37 75
-66 75 -13 0 -33 -9 -44 -20z"/>
<path d="M6726 6365 c-15 -19 -51 -49 -81 -66 -46 -26 -53 -34 -58 -67 -4 -37
6 -71 27 -84 38 -25 103 16 129 81 21 52 32 135 20 156 -8 14 -13 12 -37 -20z"/>
<path d="M4315 5922 c-124 -43 -245 -148 -305 -265 l-35 -68 25 -19 c39 -30
138 -61 217 -67 118 -10 230 20 321 87 53 38 54 23 2 -33 -129 -140 -391 -173
-568 -71 -55 32 -92 29 -111 -10 -12 -26 -12 -33 0 -55 19 -34 67 -65 142 -91
86 -31 267 -39 357 -16 158 40 283 135 346 261 31 64 36 83 37 150 2 90 -7
102 -96 131 -28 9 -85 32 -126 51 -84 38 -131 41 -206 15z"/>
<path d="M6525 5839 c-91 -50 -213 -94 -353 -127 -131 -30 -136 -35 -135 -127
4 -215 218 -398 524 -446 91 -14 272 -6 354 16 142 37 255 112 255 167 0 30
-31 68 -56 68 -8 0 -45 -18 -82 -40 -112 -68 -183 -85 -352 -85 -134 1 -151 3
-220 29 -103 39 -180 87 -234 147 -63 71 -59 89 8 35 167 -136 422 -180 635
-110 55 19 158 83 166 104 10 25 -64 156 -126 223 -72 79 -147 132 -233 163
-37 13 -70 24 -74 23 -4 0 -38 -18 -77 -40z"/>
<path d="M3245 5605 c-231 -166 -524 -273 -830 -305 -119 -13 -151 -26 -161
-66 -15 -58 19 -167 68 -221 40 -43 68 -40 195 25 167 84 207 95 312 89 47 -3
95 -8 107 -12 17 -5 23 -1 34 24 16 41 90 108 143 130 23 10 103 35 177 55
170 47 175 49 197 83 35 54 6 184 -55 240 -44 41 -84 32 -187 -42z"/>
<path d="M4792 5488 c-18 -29 -46 -70 -63 -90 l-32 -37 38 -46 c64 -79 257
-275 265 -270 4 2 35 43 69 91 l62 87 -137 141 c-76 77 -145 149 -154 159 -16
18 -19 16 -48 -35z"/>
<path d="M5755 5364 c-93 -63 -187 -124 -207 -136 -21 -12 -38 -26 -38 -32 0
-6 21 -43 48 -82 26 -39 52 -79 57 -89 13 -22 -6 -32 243 133 162 108 187 131
161 148 -13 8 -79 143 -79 161 0 7 -3 13 -7 12 -5 0 -84 -52 -178 -115z"/>
<path d="M4530 5249 c-135 -71 -326 -89 -506 -47 l-95 21 -27 -21 c-96 -76
-229 -133 -360 -153 l-81 -12 -60 56 c-74 68 -141 94 -217 82 -140 -20 -217
-254 -118 -360 30 -33 90 -34 129 -3 32 25 64 91 65 130 0 40 17 43 37 6 13
-24 17 -53 16 -108 -1 -78 14 -134 97 -347 26 -69 36 -84 57 -89 38 -10 273 3
379 20 106 18 195 44 304 90 109 46 229 123 234 150 31 159 104 381 121 365 2
-3 -1 -75 -7 -162 -7 -86 -9 -159 -6 -162 4 -4 407 242 427 261 2 2 -51 61
-117 131 -66 70 -132 143 -147 161 -15 17 -32 31 -38 31 -7 -1 -46 -19 -87
-40z"/>
<path d="M5185 5129 c-102 -138 -119 -170 -111 -205 7 -26 107 -178 165 -251
25 -32 49 -53 61 -53 13 0 43 30 87 86 108 138 143 193 143 228 0 38 -43 113
-136 238 -50 66 -72 88 -89 88 -18 0 -44 -28 -120 -131z m158 -59 c15 -27 43
-70 62 -95 19 -24 30 -47 25 -50 -5 -3 -36 -46 -69 -96 -33 -49 -63 -90 -66
-92 -6 -3 -115 190 -115 204 0 13 121 179 130 179 3 0 18 -22 33 -50z"/>
<path d="M5883 5057 c-116 -78 -222 -151 -235 -162 -13 -12 -40 -50 -61 -85
-50 -86 -174 -239 -216 -267 -37 -25 -89 -30 -124 -12 -12 6 -38 26 -57 45
l-35 33 -297 -182 c-163 -100 -297 -186 -298 -192 -2 -14 111 -39 293 -66
l152 -22 39 27 c62 42 105 48 296 44 184 -4 200 -7 252 -56 26 -24 30 -24 120
-18 241 18 648 85 711 118 13 7 17 21 17 66 0 95 -26 190 -82 299 -29 56 -49
105 -45 109 18 18 219 -143 303 -243 89 -106 190 -284 258 -456 l27 -68 -31
-67 c-49 -102 -70 -170 -70 -224 0 -41 5 -54 33 -84 59 -65 127 -44 181 55 33
61 46 55 46 -22 0 -55 -18 -104 -49 -132 -19 -16 -21 -26 -15 -60 9 -58 33
-93 79 -115 100 -48 201 42 240 215 6 26 8 28 17 12 15 -28 12 -149 -6 -190
-15 -36 -14 -37 7 -37 36 1 101 35 130 69 31 37 53 105 63 192 8 71 21 67 39
-13 l12 -53 18 35 c28 51 33 238 10 371 -42 254 -121 501 -230 725 -63 127
-191 330 -257 407 l-33 38 -74 -26 c-127 -43 -232 -58 -361 -52 -182 9 -319
51 -466 143 -40 24 -76 44 -80 43 -5 0 -104 -64 -221 -142z"/>
<path d="M2734 5007 c-94 -45 -129 -139 -85 -229 16 -35 19 -54 14 -96 -8 -71
15 -127 76 -185 33 -32 51 -57 55 -81 8 -43 54 -90 102 -106 54 -18 136 -8
182 22 70 47 90 132 44 188 l-18 22 -63 -27 c-39 -16 -77 -25 -99 -23 l-37 3
55 31 c107 61 157 131 114 161 -10 7 -41 29 -68 49 l-49 36 -79 -7 c-97 -8
-102 5 -16 45 l62 30 -3 82 c-1 46 -6 87 -11 91 -4 5 -34 11 -66 13 -48 4 -68
1 -110 -19z"/>
<path d="M4769 4757 c-363 -228 -362 -228 -357 -359 4 -94 14 -108 62 -85 62
29 616 371 616 380 0 4 -18 35 -41 68 -22 33 -45 73 -51 89 -5 17 -15 30 -21
30 -7 0 -100 -56 -208 -123z"/>
<path d="M3207 4689 c-28 -16 -22 -80 13 -136 55 -86 35 -206 -46 -278 -32
-29 -34 -33 -40 -127 -6 -94 -6 -99 19 -137 50 -75 158 -102 243 -61 61 30 97
89 102 167 5 68 2 73 -98 153 -25 21 -42 58 -103 227 -64 178 -75 200 -90 192z"/>
<path d="M2293 4476 c-86 -65 -210 -199 -275 -296 -159 -241 -228 -465 -229
-741 -1 -369 124 -681 376 -935 424 -430 1090 -484 1615 -131 136 92 260 224
260 278 0 15 -12 71 -27 126 -24 87 -27 115 -27 248 0 129 3 165 26 257 37
146 96 289 184 447 41 74 74 140 74 147 0 22 -30 31 -125 38 -178 14 -355 -23
-530 -109 -143 -70 -221 -130 -352 -273 -205 -223 -267 -268 -405 -293 -132
-24 -273 24 -345 120 -19 24 -32 45 -31 47 2 1 31 -11 64 -27 168 -83 346 -52
432 75 38 57 42 103 12 151 -26 41 -70 71 -204 135 -169 82 -276 202 -333 374
-24 73 -27 96 -27 231 -1 83 -5 156 -9 163 -17 25 -64 13 -124 -32z"/>
<path d="M6370 4134 c-25 -8 -114 -27 -198 -43 -84 -16 -155 -31 -158 -34 -3
-2 6 -21 19 -40 33 -49 41 -96 23 -146 -7 -23 -11 -43 -7 -45 10 -6 247 41
321 63 38 12 76 28 84 37 22 22 22 170 0 202 -17 25 -22 25 -84 6z"/>
<path d="M4406 4125 c-12 -31 -19 -123 -12 -159 9 -47 32 -61 152 -92 78 -19
364 -73 395 -74 3 0 6 48 6 108 1 59 2 113 4 121 3 11 -23 19 -119 33 -68 10
-174 30 -235 44 -156 37 -183 40 -191 19z"/>
<path d="M5180 4121 c-113 -13 -135 -47 -135 -206 0 -88 4 -118 19 -148 32
-65 56 -72 258 -72 172 0 177 1 202 24 37 35 49 83 49 192 -1 75 -5 107 -19
135 -32 63 -53 71 -194 77 -69 2 -150 1 -180 -2z m204 -90 c40 -5 63 -13 73
-26 27 -37 13 -50 -61 -55 -55 -4 -71 -9 -82 -26 -24 -36 2 -56 82 -63 67 -6
69 -7 66 -31 -2 -14 -8 -29 -13 -35 -6 -6 -65 -10 -134 -10 -153 0 -165 7
-172 106 -9 134 43 165 241 140z"/>
<path d="M5668 4033 c-2 -5 -2 -64 0 -132 l3 -124 76 7 c130 11 223 70 223
143 0 33 -53 88 -98 101 -43 13 -199 16 -204 5z"/>
<path d="M4331 3721 c-106 -185 -184 -380 -211 -530 -16 -91 -14 -266 5 -347
37 -159 144 -299 277 -363 88 -41 206 -71 284 -71 35 0 65 -4 68 -9 10 -15
-87 -59 -157 -71 -38 -7 -87 -10 -108 -7 -40 5 -40 5 -85 -63 -78 -120 -143
-167 -284 -210 -127 -38 -187 -76 -233 -150 -23 -37 -39 -119 -32 -162 6 -36
47 -98 65 -98 4 0 9 28 12 63 2 36 12 79 24 102 22 43 75 85 106 85 17 0 17
-4 -8 -46 -20 -33 -28 -64 -32 -114 -8 -121 25 -160 138 -160 l60 0 0 71 c0
93 33 158 93 188 23 11 42 19 44 17 2 -2 -8 -25 -22 -52 -22 -41 -26 -59 -23
-111 7 -111 48 -131 203 -98 99 21 202 75 269 140 132 130 359 538 373 669 4
41 0 69 -22 132 -21 61 -26 90 -21 127 6 55 40 136 86 201 l30 45 -32 17 c-85
42 -198 153 -198 193 0 5 42 -10 93 -34 114 -54 177 -71 335 -90 134 -16 161
-26 223 -92 50 -52 84 -110 109 -182 26 -77 25 -141 -1 -216 -32 -91 -23 -133
65 -310 90 -180 219 -379 296 -456 63 -64 168 -119 270 -143 68 -16 137 -20
165 -10 49 19 61 150 20 222 -19 33 -21 42 -9 42 32 0 75 -32 101 -78 24 -40
28 -58 28 -119 l0 -73 43 -6 c54 -8 108 11 136 49 16 22 21 43 21 95 0 57 -5
76 -33 125 -29 51 -30 57 -14 57 33 0 86 -44 109 -89 12 -24 25 -70 29 -103 7
-58 7 -58 27 -41 78 70 55 220 -48 311 -39 34 -69 49 -155 76 -59 19 -125 43
-147 54 -46 24 -136 118 -179 186 -28 45 -31 47 -66 42 -82 -13 -270 35 -272
69 -1 6 37 13 85 17 105 8 168 26 261 75 288 151 365 530 193 951 -35 87 -166
336 -189 360 -10 10 -26 9 -87 -7 -171 -47 -429 -90 -664 -112 -101 -9 -135
-16 -150 -30 -47 -42 -92 -51 -265 -53 -188 -1 -238 9 -297 59 -35 29 -49 34
-163 49 -180 26 -395 71 -471 101 -13 5 -29 -14 -68 -84z"/>
</g>
</svg>
